<?xml version="1.0" encoding="UTF-8"?>
<!-- Generator: visioncortex VTracer -->
<svg id="svg" version="1.1" xmlns="http://www.w3.org/2000/svg" style="display: block;" viewBox="0 0 1024 1024"><path d="M0 0 C337.92 0 675.84 0 1024 0 C1024 337.92 1024 675.84 1024 1024 C686.08 1024 348.16 1024 0 1024 C0 686.08 0 348.16 0 0 Z " transform="translate(0,0)" style="fill: #000000;"/><path d="M0 0 C1.00546875 0.2784375 2.0109375 0.556875 3.046875 0.84375 C22.68215199 6.74450682 39.42346656 19.55554459 49.19384766 37.64208984 C55.99769602 50.81884472 59.17672415 64.48777903 59.11352539 79.33178711 C59.11367142 80.23989136 59.11381744 81.14799561 59.1139679 82.08361816 C59.11327501 85.0648849 59.10551199 88.04608802 59.09765625 91.02734375 C59.09578985 93.10242173 59.094367 95.17750015 59.09336853 97.25257874 C59.08956083 102.69903797 59.07974553 108.1454703 59.06866455 113.59191895 C59.0584128 119.15567664 59.05386286 124.7194387 59.04882812 130.28320312 C59.03812163 141.18881387 59.02106628 152.09440469 59 163 C57.55071154 162.85622474 56.10190457 162.70758984 54.65332031 162.55688477 C53.8464679 162.4746315 53.03961548 162.39237823 52.20831299 162.30763245 C47.23295426 161.61453243 43.48828808 158.89452055 40.42578125 154.99609375 C36.9829194 149.63943476 35.8757675 145.61337502 35.84228516 139.19628906 C35.83720444 138.50793472 35.83212372 137.81958038 35.82688904 137.11036682 C35.81618951 135.61425294 35.80756769 134.11812309 35.80076981 132.62198639 C35.78893515 130.23999362 35.76946344 127.85817846 35.74765015 125.47625732 C35.68624029 118.70282081 35.63233411 111.92939713 35.59863281 105.15576172 C35.57744923 101.00888469 35.54194837 96.86232362 35.49787521 92.71562958 C35.48388411 91.14831058 35.47503179 89.58093559 35.47182083 88.01355743 C35.42723632 68.30720532 32.10468497 50.96224679 18.5 35.875 C5.32380421 23.25306101 -13.71578503 20.53793684 -31.16796875 20.79296875 C-47.43724378 21.30980598 -60.81872896 28.34461146 -72 40 C-83.30393783 52.20465001 -87.59958656 66.88606625 -87.3125 83.25 C-86.09034969 97.91580374 -80.79902338 110.03442622 -71 121 C-71 121.66 -71 122.32 -71 123 C-70.11634766 123.40992188 -70.11634766 123.40992188 -69.21484375 123.828125 C-67.06887252 124.96355951 -65.4264215 126.20572651 -63.5625 127.75 C-50.34004363 137.7961121 -35.19222907 140.42946185 -19 139 C-5.20977845 137.03491705 7.69826222 131.49423814 18 122 C18.33 121.34 18.66 120.68 19 120 C22 121 22 121 23.65234375 123.63671875 C26.19058359 129.97128251 26.42264999 137.27632143 23.96875 143.69921875 C17.39279656 154.45820924 5.45298374 158.59352396 -6.2421875 161.57080078 C-28.85540698 166.6316393 -52.58445281 162.72345885 -72.4375 150.9375 C-91.26350142 138.35066332 -104.27800677 120.33173762 -109.9375 98.375 C-113.96390862 76.3304128 -110.44507086 54.0165198 -98.375 35 C-84.3733123 14.99012542 -66.323121 2.80165095 -42.36328125 -2.59375 C-28.42118841 -4.27781232 -13.48081515 -4.09365067 0 0 Z " transform="translate(245,434)" style="fill: #FAFAFA;"/><path d="M0 0 C5.66016176 4.44126129 8.44178211 7.85988395 9.421875 15.12890625 C9.73115689 22.54308053 8.90709206 27.40183007 4 33 C2.90854844 33.98291977 1.79437016 34.94092843 0.6640625 35.87890625 C-5.08190487 40.83836331 -10.36716083 46.2561979 -15.71307373 51.63790894 C-17.66256755 53.6003164 -19.61529925 55.55945154 -21.56884766 57.51782227 C-25.71539909 61.67572975 -29.85799633 65.83756277 -34 70 C-38.80466079 74.82836341 -43.61098393 79.65504776 -48.42156982 84.47750854 C-50.33342479 86.39578514 -52.24221206 88.31707743 -54.15087891 90.23852539 C-59.47126999 95.58103728 -64.77038427 100.87845101 -70.53369141 105.75024414 C-72.1317146 107.07872919 -72.1317146 107.07872919 -74 109 C-42.32 109.33 -10.64 109.66 22 110 C21.80248286 91.2720957 21.80248286 91.2720957 21.54956055 72.54492188 C21.53494891 70.18620945 21.52220985 67.82748436 21.51171875 65.46875 C21.48613892 64.25735352 21.46055908 63.04595703 21.4342041 61.79785156 C21.42998302 53.5785599 22.68927368 48.41202276 28.4785614 42.48669434 C34.77970394 36.84714365 38.27477534 37 47 37 C47 61.09 47 85.18 47 110 C56.24 110 65.48 110 75 110 C74.04899743 119.5100257 73.41411644 125.22786888 66.4375 131.4375 C62.18385078 134.91431351 58.72672939 135.11610623 53.3125 135.0625 C52.13300781 135.05347656 50.95351563 135.04445313 49.73828125 135.03515625 C48.83464844 135.02355469 47.93101562 135.01195312 47 135 C47.03480469 136.30195312 47.06960938 137.60390625 47.10546875 138.9453125 C47.13361901 140.67186204 47.16091784 142.39842561 47.1875 144.125 C47.21263672 144.9809375 47.23777344 145.836875 47.26367188 146.71875 C47.35029801 154.22634801 45.32414329 159.53196095 40 165 C33.92056439 169.33036365 29.87619216 169 22 169 C22 157.78 22 146.56 22 135 C16.45807861 135.0314209 16.45807861 135.0314209 10.80419922 135.06347656 C-1.39741265 135.12973042 -13.59901193 135.17413277 -25.80075264 135.20724869 C-33.19929303 135.22786282 -40.59766285 135.2559612 -47.99609375 135.30175781 C-54.44553552 135.34166106 -60.89485375 135.36744117 -67.34441555 135.37635398 C-70.75860635 135.38156292 -74.17244375 135.39378114 -77.58652115 135.42292023 C-81.40050536 135.45192063 -85.21375545 135.45595721 -89.02783203 135.45410156 C-90.15640121 135.46848267 -91.2849704 135.48286377 -92.44773865 135.49768066 C-98.62703013 135.46510957 -102.31590611 135.16622824 -107 131 C-109.93291721 127.7412031 -112.77513242 124.45011965 -113.1875 119.95703125 C-112.05218793 106.97189946 -100.90381446 98.01909963 -91.52880859 90.03759766 C-86.51049288 85.65380707 -81.82894687 80.94220741 -77.1388855 76.21405029 C-75.52546486 74.58766731 -73.90876729 72.96460304 -72.29125977 71.34228516 C-68.85799254 67.89768516 -65.42869316 64.44915219 -62 61 C-58.02141817 56.99767795 -54.0411508 52.99706185 -50.05661011 49.00067139 C-48.47712934 47.41478994 -46.90073203 45.82588904 -45.32446289 44.23681641 C-40.62737535 39.51604094 -35.88210574 34.92569426 -30.8215332 30.5944519 C-27.6997147 27.86181467 -24.79476681 24.91783368 -21.875 21.97265625 C-21.24263428 21.33887558 -20.61026855 20.70509491 -19.95874023 20.05210876 C-17.97010014 18.05794022 -15.98499473 16.06029647 -14 14.0625 C-12.63955682 12.69703255 -11.27888169 11.33179614 -9.91796875 9.96679688 C-6.6092969 6.64719114 -3.30378678 3.32446727 0 0 Z " transform="translate(832,428)" style="fill: #FCFCFC;"/><path d="M0 0 C7.91053529 4.67440722 13.57237971 12.40448062 19.22265625 19.46484375 C22.29427744 23.21303349 25.61664623 26.72336403 28.9375 30.25 C29.55052979 30.90105713 30.16355957 31.55211426 30.79516602 32.22290039 C31.38869873 32.85317139 31.98223145 33.48344238 32.59375 34.1328125 C36.10186232 37.85918066 39.4923426 41.66796938 42.8125 45.5625 C44.34745426 47.35988538 45.88303259 49.15673191 47.41943359 50.95288086 C48.49421184 52.21019573 49.56751575 53.46877277 50.63916016 54.72875977 C51.13464355 55.30940186 51.63012695 55.89004395 52.140625 56.48828125 C52.80433105 57.26812378 52.80433105 57.26812378 53.48144531 58.0637207 C54.86896211 59.62607683 56.32126228 61.09939369 57.8125 62.5625 C61.1033988 61.46553373 61.78046717 60.71448144 63.9375 58.125 C66.57593277 55.01286114 69.25262579 51.95412686 72 48.9375 C75.63534521 44.91331482 79.17383312 40.81738227 82.6875 36.6875 C87.45078309 31.09311138 92.34963768 25.64974366 97.3359375 20.25390625 C103.31254662 13.78727236 103.31254662 13.78727236 108.75 6.875 C112.7051915 2.44039135 118.23590789 -1.085041 124.23046875 -1.67578125 C130.96237017 -1.85618481 135.0400034 -0.92278097 140.8125 2.5625 C140.8125 7.54003476 139.751301 8.13564174 136.375 11.625 C135.44294057 12.60712942 134.51330318 13.59156234 133.5859375 14.578125 C133.11639648 15.07634766 132.64685547 15.57457031 132.16308594 16.08789062 C130.16814827 18.26602214 128.33879724 20.56454102 126.5 22.875 C121.86429634 28.62228447 116.85482099 33.97218434 111.80859375 39.35546875 C107.43133286 44.0264332 103.2610711 48.85997541 99.11328125 53.734375 C98.09661156 54.92730274 97.07967605 56.12000398 96.0625 57.3125 C95.55130615 57.91255859 95.0401123 58.51261719 94.51342773 59.13085938 C90.20422332 64.16354624 85.7347142 69.02586828 81.1875 73.84375 C78.74591082 76.63872709 76.798597 79.4362362 74.8125 82.5625 C75.71871094 83.51769531 76.62492188 84.47289062 77.55859375 85.45703125 C83.77955507 92.04791071 89.81681368 98.66567152 95.47265625 105.75390625 C98.29767779 109.14487534 101.28751681 112.35040445 104.3125 115.5625 C108.93546895 120.47208241 113.27851367 125.50728779 117.49609375 130.7734375 C120.20565977 134.03588292 123.04861215 137.14667465 125.9375 140.25 C126.45054687 140.80115479 126.96359375 141.35230957 127.4921875 141.92016602 C128.48182454 142.98252348 129.47156656 144.04478315 130.46142578 145.10693359 C139.04658245 154.35606696 139.04658245 154.35606696 141.8125 159.5625 C138.71045028 163.15434704 135.4462474 164.38259952 130.76171875 164.8984375 C129.68535156 164.91132812 128.60898437 164.92421875 127.5 164.9375 C126.43136719 164.96585938 125.36273437 164.99421875 124.26171875 165.0234375 C116.01878889 163.92189081 111.08198483 159.36435522 105.75 153.3125 C105.13785645 152.63646729 104.52571289 151.96043457 103.89501953 151.26391602 C102.18875445 149.3738117 100.49830359 147.47084479 98.8125 145.5625 C98.14089844 144.81355469 97.46929688 144.06460938 96.77734375 143.29296875 C94.67134032 140.91789363 92.61245322 138.50475709 90.55810547 136.08496094 C84.97909472 129.51571938 79.36801683 123.00155288 73.5 116.6875 C73.00048828 116.14988037 72.50097656 115.61226074 71.98632812 115.05834961 C71.26219727 114.27923218 71.26219727 114.27923218 70.5234375 113.484375 C68.20452902 110.98503272 65.89752936 108.47902263 63.625 105.9375 C63.09519531 105.34710937 62.56539062 104.75671875 62.01953125 104.1484375 C60.8125 102.5625 60.8125 102.5625 59.8125 99.5625 C55.87842108 102.48784073 52.87113814 105.6013389 49.8125 109.4375 C45.97109663 114.24902049 41.91012952 118.77023922 37.6875 123.25 C33.52887173 127.66212956 29.40650692 132.08054234 25.44921875 136.67578125 C22.68381108 139.86359009 19.83931644 142.98032319 17.0078125 146.109375 C15.03265899 148.31648604 13.10708528 150.5572025 11.1875 152.8125 C6.05874679 158.67732427 1.04702131 163.94157747 -7.01953125 164.8984375 C-13.93236436 164.9890382 -18.28003296 164.19786433 -24.1875 160.5625 C-23.70481584 156.30884586 -21.03235104 153.93242885 -18.1875 151 C-14.55002943 147.15053503 -11.05934746 143.26623848 -7.75 139.125 C-3.38493267 133.70197201 1.29916394 128.6313507 6.04296875 123.54296875 C9.38646742 119.95610356 12.61311476 116.2781207 15.8125 112.5625 C17.91489017 110.12346221 20.01924272 107.68613136 22.125 105.25 C22.68485596 104.60200439 23.24471191 103.95400879 23.8215332 103.28637695 C28.06347068 98.39126812 32.39115264 93.58791051 36.7890625 88.83203125 C38.59030472 86.81171903 40.22935274 84.75571356 41.8125 82.5625 C40.21457267 78.70008138 37.59101211 75.98030586 34.75 73 C31.16137672 69.16784209 27.71605389 65.29329568 24.4375 61.1875 C20.38648276 56.14913806 16.04026443 51.4594524 11.61206055 46.7565918 C7.56995807 42.44040843 3.81661892 37.95755501 0.12109375 33.33984375 C-2.5403386 30.13801905 -5.34270363 27.10075323 -8.1875 24.0625 C-23.37976162 7.78266 -23.37976162 7.78266 -24.1875 2.5625 C-16.69377656 -2.04902212 -8.36349991 -3.62251393 0 0 Z " transform="translate(560.1875,432.4375)" style="fill: #FAFAFA;"/><path d="M0 0 C7.02443238 -0.08214815 11.53642592 0.77344754 16.76953125 5.6484375 C21.55717107 10.98356898 23.24208976 15.44020833 23.28710938 22.67944336 C23.29394241 23.33068176 23.30077545 23.98192017 23.30781555 24.65289307 C23.32135776 26.06164567 23.33044039 27.47044678 23.33552551 28.87925529 C23.34387187 31.12259954 23.36443588 33.36554768 23.38806152 35.60877991 C23.43618466 40.38496021 23.46909738 45.16118143 23.5 49.9375 C23.5359071 55.44707449 23.57834703 60.95645887 23.63594055 66.46585274 C23.65567571 68.65124914 23.66426426 70.83649153 23.67224121 73.0219574 C23.82023463 92.84634841 27.30624049 110.77213393 41.25 125.75 C54.52350619 138.16043068 69.97818503 142.681514 87.75 142.24609375 C102.67638804 141.57400504 116.30927347 135.41031403 127 125 C139.46335868 110.94387983 143.28161238 96.36510938 143.30496025 77.9894104 C143.3086654 75.64210813 143.32550191 73.29521298 143.34571838 70.94799805 C143.4007459 64.28083901 143.43178776 57.61362299 143.45629883 50.94628906 C143.47225281 46.85089438 143.50254451 42.75579422 143.54106331 38.66055298 C143.5526352 37.11059718 143.55864297 35.56058859 143.55874443 34.0105896 C143.55975792 22.65343893 143.94222529 13.29132191 152.10546875 4.6640625 C156.68161221 0.64460454 160.96716794 -0.13537912 167 0 C167.09310742 12.25771904 167.16397052 24.5153525 167.20724869 36.77335453 C167.22803095 42.46662544 167.25617581 48.15965255 167.30175781 53.8527832 C167.34555159 59.35766906 167.3692073 64.86232194 167.37950897 70.3673687 C167.3868406 72.45669656 167.40115563 74.54601319 167.42292023 76.63524055 C167.57509383 91.86271865 166.57005415 105.53558672 159.25 119.25 C158.90565918 119.91273926 158.56131836 120.57547852 158.20654297 121.25830078 C146.57787212 143.08255025 129.00637771 155.94835285 106.07421875 164.03125 C84.97163262 170.06854616 62.03216457 166.1587268 43 156 C41.63488281 155.28263672 41.63488281 155.28263672 40.2421875 154.55078125 C22.36503967 144.2049683 8.62043579 125.81390131 3 106 C-0.19051912 93.82489882 -0.39638944 82.14930816 -0.29296875 69.62890625 C-0.28735966 67.61010557 -0.28309579 65.59130076 -0.28010559 63.57249451 C-0.26876006 58.31017383 -0.23938389 53.04810946 -0.20599365 47.78588867 C-0.17506838 42.39570582 -0.1615527 37.00548075 -0.14648438 31.61523438 C-0.11450236 21.07671154 -0.06343365 10.53837725 0 0 Z " transform="translate(340,431)" style="fill: #FAFAFA;"/></svg>